<svg width="24" height="24" viewBox="0 0 24 24" fill="none" xmlns="http://www.w3.org/2000/svg">
<path d="M5.99854 2.99121C4.34154 2.99121 2.99854 4.33431 2.99854 5.99121V7.99121V16.9912C2.99854 19.2002 4.78954 20.9912 6.99854 20.9912H16.9986C19.2076 20.9912 20.9986 19.2002 20.9986 16.9912V7.99121C20.9986 7.43891 20.5506 6.99121 19.9986 6.99121C19.9986 6.99121 17.0956 6.99121 14.9986 6.99121C14.2436 6.99121 14.0006 6.74631 13.4046 5.55371C12.5016 3.74631 11.7435 2.99121 9.99855 2.99121H5.99854ZM5.99854 4.99121H9.99855C10.7535 4.99121 10.9965 5.23611 11.5925 6.42871C11.7225 6.68981 11.7726 6.77481 11.9006 6.99291C8.45455 6.99291 5.98354 6.99121 4.99854 6.99121V5.99121C4.99854 5.43891 5.44654 4.99121 5.99854 4.99121Z" fill="white"/>
</svg>
