<svg width="59" height="48" viewBox="0 0 59 48" fill="none" xmlns="http://www.w3.org/2000/svg">
<path d="M0.1664 1.7328H23.5916V10.6752C24.6284 7.6944 26.216 5.2968 28.3544 3.48239C30.4928 1.66799 33.7328 0.760795 38.0744 0.760795C48.1184 0.760795 53.1404 6.1716 53.1404 16.9932V46.2504H58.5836V48H31.076V46.2504H35.0612V14.6604C35.0612 10.7724 34.802 8.2776 34.2836 7.176C33.7652 6.0096 32.8256 5.4264 31.4648 5.4264C29.3912 5.4264 27.5444 6.7872 25.9244 9.5088C24.3692 12.2304 23.5916 15.5352 23.5916 19.4232V46.2504H27.7712V48H0.1664V46.2504H5.5124V3.48239H0.1664V1.7328Z" fill="white"/>
</svg>
