<svg width="65" height="65" viewBox="0 0 65 65" fill="none" xmlns="http://www.w3.org/2000/svg">
<path d="M54.9432 61.8676C54.9432 62.2789 54.4369 62.9117 53.4244 63.766C52.4119 64.5887 51.5418 65 50.8141 65H38.5691C34.9938 58.5137 30.216 51.1256 24.2359 42.8357C18.2875 34.5459 12.8611 27.6008 7.95684 22.0004C8.36816 18.6148 9.00098 12.4449 9.85527 3.49062C9.9502 3.04765 10.4881 2.43066 11.4689 1.63965C12.4814 0.816989 13.3199 0.405661 13.9844 0.405661H26.3717C30.5799 7.80957 35.0729 14.818 39.8506 21.4309C44.66 28.0437 50.2604 35.2578 56.6518 43.073C55.8291 50.6668 55.2596 56.9316 54.9432 61.8676ZM54.1363 34.7674C52.6176 26.9521 51.2254 20.8139 49.9598 16.3525C48.7258 11.8596 47.0488 7.57226 44.9289 3.49062C44.9289 3.07929 45.4352 2.4623 46.4477 1.63965C47.4918 0.816989 48.3936 0.405661 49.1529 0.405661H64.2455C62.1256 9.5498 60.148 19.9437 58.3129 31.5875C58.3129 32.0305 57.8066 32.6791 56.7941 33.5334C55.7816 34.3561 54.8957 34.7674 54.1363 34.7674ZM10.5197 31.2553C11.3424 37.8998 12.4656 43.4686 13.8895 47.9615C15.3133 52.4229 17.2908 57.0582 19.8221 61.8676C19.8221 62.2789 19.3158 62.9117 18.3033 63.766C17.2908 64.5887 16.4049 65 15.6455 65H0.55293C2.67285 55.7926 4.60293 45.5885 6.34316 34.3877C6.34316 33.9764 6.84941 33.3594 7.86191 32.5367C8.90606 31.6824 9.79199 31.2553 10.5197 31.2553Z" fill="white"/>
</svg>
