<svg width="57" height="64" viewBox="0 0 57 64" fill="none" xmlns="http://www.w3.org/2000/svg">
<path d="M0.51875 54.2197V6.66386C0.51875 5.01855 1.83184 3.65801 4.45801 2.58222C7.11582 1.4748 10.2324 0.921091 13.8078 0.921091C15.8328 0.921091 17.7313 1.17422 19.5031 1.68047C21.3066 2.15508 22.683 2.77207 23.6322 3.53144C24.9295 5.17676 26.116 6.85371 27.1918 8.5623C28.2676 10.2709 30.6881 14.2576 34.4533 20.5225C34.8014 20.5225 35.1178 20.4117 35.4025 20.1902C35.6873 19.9687 35.8297 19.6365 35.8297 19.1936C35.8297 18.7189 35.4342 17.8172 34.6432 16.4883L29.5174 7.66054V5.05019C31.1311 3.72129 33.0928 2.69297 35.4025 1.96523C37.7123 1.2375 40.1012 0.87363 42.5691 0.87363C46.5875 0.87363 49.8307 1.60136 52.2986 3.05683C55.1779 4.79707 56.6176 7.51816 56.6176 11.2201V56.1656C56.6176 58.8867 55.3203 60.8643 52.7258 62.0982C50.5109 63.2057 47.5525 63.7594 43.8506 63.7594C41.7939 63.7594 39.7848 63.5379 37.823 63.0949C35.893 62.652 34.3742 62.0824 33.2668 61.3863C31.0203 58.507 28.7896 55.2797 26.5748 51.7043L21.7338 43.6359C20.8162 43.7625 20.3574 44.2529 20.3574 45.1072C20.3574 45.6451 20.8162 46.6734 21.7338 48.1922L27.6664 57.7793V60.2947C23.9961 62.6678 19.8512 63.8543 15.2316 63.8543C10.6438 63.8543 7.03672 63.0158 4.41055 61.3389C1.81602 59.6619 0.51875 57.2889 0.51875 54.2197Z" fill="white"/>
</svg>
