<svg width="92" height="92" viewBox="0 0 92 92" fill="none" xmlns="http://www.w3.org/2000/svg">
<path d="M37.4456 45.7808C37.4456 41.1786 41.1776 37.4468 45.7826 37.4468C50.3875 37.4468 54.1216 41.1786 54.1216 45.7808C54.1216 50.383 50.3875 54.1148 45.7826 54.1148C41.1776 54.1148 37.4456 50.383 37.4456 45.7808ZM32.9377 45.7808C32.9377 52.8708 38.6883 58.618 45.7826 58.618C52.8768 58.618 58.6275 52.8708 58.6275 45.7808C58.6275 38.6908 52.8768 32.9436 45.7826 32.9436C38.6883 32.9436 32.9377 38.6908 32.9377 45.7808ZM56.1342 32.4346C56.1339 33.0279 56.3098 33.608 56.6394 34.1015C56.9691 34.595 57.4377 34.9797 57.9861 35.2069C58.5346 35.4342 59.1381 35.4939 59.7204 35.3784C60.3028 35.2628 60.8378 34.9773 61.2577 34.5579C61.6777 34.1385 61.9638 33.6041 62.0799 33.0222C62.1959 32.4403 62.1367 31.8371 61.9097 31.2888C61.6828 30.7406 61.2982 30.2719 60.8047 29.942C60.3112 29.6122 59.7309 29.436 59.1372 29.4358H59.136C58.3402 29.4361 57.5771 29.7522 57.0142 30.3144C56.4514 30.8767 56.1349 31.6392 56.1342 32.4346V32.4346ZM35.6765 66.1302C33.2377 66.0192 31.9121 65.6132 31.0311 65.2702C29.8632 64.8158 29.0299 64.2746 28.1538 63.4002C27.2777 62.5258 26.7354 61.6938 26.2827 60.5266C25.9393 59.6466 25.533 58.3214 25.4222 55.884C25.3009 53.2488 25.2767 52.4572 25.2767 45.781C25.2767 39.1048 25.3029 38.3154 25.4222 35.678C25.5332 33.2406 25.9425 31.918 26.2827 31.0354C26.7374 29.8682 27.2789 29.0354 28.1538 28.1598C29.0287 27.2842 29.8612 26.7422 31.0311 26.2898C31.9117 25.9466 33.2377 25.5406 35.6765 25.4298C38.3133 25.3086 39.1054 25.2844 45.7826 25.2844C52.4598 25.2844 53.2527 25.3106 55.8916 25.4298C58.3305 25.5408 59.6539 25.9498 60.537 26.2898C61.7049 26.7422 62.5382 27.2854 63.4144 28.1598C64.2905 29.0342 64.8308 29.8682 65.2855 31.0354C65.6289 31.9154 66.0351 33.2406 66.146 35.678C66.2673 38.3154 66.2915 39.1048 66.2915 45.781C66.2915 52.4572 66.2673 53.2466 66.146 55.884C66.0349 58.3214 65.6267 59.6462 65.2855 60.5266C64.8308 61.6938 64.2893 62.5266 63.4144 63.4002C62.5394 64.2738 61.7049 64.8158 60.537 65.2702C59.6565 65.6134 58.3305 66.0194 55.8916 66.1302C53.2549 66.2514 52.4628 66.2756 45.7826 66.2756C39.1024 66.2756 38.3125 66.2514 35.6765 66.1302V66.1302ZM35.4694 20.9322C32.8064 21.0534 30.9867 21.4754 29.3976 22.0934C27.7518 22.7316 26.3585 23.5878 24.9663 24.977C23.5741 26.3662 22.7195 27.7608 22.081 29.4056C21.4626 30.9948 21.0403 32.8124 20.9191 35.4738C20.7958 38.1394 20.7676 38.9916 20.7676 45.7808C20.7676 52.57 20.7958 53.4222 20.9191 56.0878C21.0403 58.7494 21.4626 60.5668 22.081 62.156C22.7195 63.7998 23.5743 65.196 24.9663 66.5846C26.3583 67.9732 27.7518 68.8282 29.3976 69.4682C30.9897 70.0862 32.8064 70.5082 35.4694 70.6294C38.138 70.7506 38.9893 70.7808 45.7826 70.7808C52.5759 70.7808 53.4286 70.7526 56.0958 70.6294C58.759 70.5082 60.5775 70.0862 62.1676 69.4682C63.8124 68.8282 65.2066 67.9738 66.5989 66.5846C67.9911 65.1954 68.8438 63.7998 69.4842 62.156C70.1026 60.5668 70.5268 58.7492 70.6461 56.0878C70.7674 53.4202 70.7956 52.57 70.7956 45.7808C70.7956 38.9916 70.7674 38.1394 70.6461 35.4738C70.5248 32.8122 70.1026 30.9938 69.4842 29.4056C68.8438 27.7618 67.9889 26.3684 66.5989 24.977C65.2088 23.5856 63.8124 22.7316 62.1696 22.0934C60.5775 21.4754 58.7588 21.0514 56.0978 20.9322C53.4306 20.811 52.5779 20.7808 45.7846 20.7808C38.9913 20.7808 38.138 20.809 35.4694 20.9322Z" fill="url(#paint0_radial_10_28)"/>
<path d="M37.4456 45.7808C37.4456 41.1786 41.1776 37.4468 45.7826 37.4468C50.3875 37.4468 54.1216 41.1786 54.1216 45.7808C54.1216 50.383 50.3875 54.1148 45.7826 54.1148C41.1776 54.1148 37.4456 50.383 37.4456 45.7808ZM32.9377 45.7808C32.9377 52.8708 38.6883 58.618 45.7826 58.618C52.8768 58.618 58.6275 52.8708 58.6275 45.7808C58.6275 38.6908 52.8768 32.9436 45.7826 32.9436C38.6883 32.9436 32.9377 38.6908 32.9377 45.7808ZM56.1342 32.4346C56.1339 33.0279 56.3098 33.608 56.6394 34.1015C56.9691 34.595 57.4377 34.9797 57.9861 35.2069C58.5346 35.4342 59.1381 35.4939 59.7204 35.3784C60.3028 35.2628 60.8378 34.9773 61.2577 34.5579C61.6777 34.1385 61.9638 33.6041 62.0799 33.0222C62.1959 32.4403 62.1367 31.8371 61.9097 31.2888C61.6828 30.7406 61.2982 30.2719 60.8047 29.942C60.3112 29.6122 59.7309 29.436 59.1372 29.4358H59.136C58.3402 29.4361 57.5771 29.7522 57.0142 30.3144C56.4514 30.8767 56.1349 31.6392 56.1342 32.4346V32.4346ZM35.6765 66.1302C33.2377 66.0192 31.9121 65.6132 31.0311 65.2702C29.8632 64.8158 29.0299 64.2746 28.1538 63.4002C27.2777 62.5258 26.7354 61.6938 26.2827 60.5266C25.9393 59.6466 25.533 58.3214 25.4222 55.884C25.3009 53.2488 25.2767 52.4572 25.2767 45.781C25.2767 39.1048 25.3029 38.3154 25.4222 35.678C25.5332 33.2406 25.9425 31.918 26.2827 31.0354C26.7374 29.8682 27.2789 29.0354 28.1538 28.1598C29.0287 27.2842 29.8612 26.7422 31.0311 26.2898C31.9117 25.9466 33.2377 25.5406 35.6765 25.4298C38.3133 25.3086 39.1054 25.2844 45.7826 25.2844C52.4598 25.2844 53.2527 25.3106 55.8916 25.4298C58.3305 25.5408 59.6539 25.9498 60.537 26.2898C61.7049 26.7422 62.5382 27.2854 63.4144 28.1598C64.2905 29.0342 64.8308 29.8682 65.2855 31.0354C65.6289 31.9154 66.0351 33.2406 66.146 35.678C66.2673 38.3154 66.2915 39.1048 66.2915 45.781C66.2915 52.4572 66.2673 53.2466 66.146 55.884C66.0349 58.3214 65.6267 59.6462 65.2855 60.5266C64.8308 61.6938 64.2893 62.5266 63.4144 63.4002C62.5394 64.2738 61.7049 64.8158 60.537 65.2702C59.6565 65.6134 58.3305 66.0194 55.8916 66.1302C53.2549 66.2514 52.4628 66.2756 45.7826 66.2756C39.1024 66.2756 38.3125 66.2514 35.6765 66.1302V66.1302ZM35.4694 20.9322C32.8064 21.0534 30.9867 21.4754 29.3976 22.0934C27.7518 22.7316 26.3585 23.5878 24.9663 24.977C23.5741 26.3662 22.7195 27.7608 22.081 29.4056C21.4626 30.9948 21.0403 32.8124 20.9191 35.4738C20.7958 38.1394 20.7676 38.9916 20.7676 45.7808C20.7676 52.57 20.7958 53.4222 20.9191 56.0878C21.0403 58.7494 21.4626 60.5668 22.081 62.156C22.7195 63.7998 23.5743 65.196 24.9663 66.5846C26.3583 67.9732 27.7518 68.8282 29.3976 69.4682C30.9897 70.0862 32.8064 70.5082 35.4694 70.6294C38.138 70.7506 38.9893 70.7808 45.7826 70.7808C52.5759 70.7808 53.4286 70.7526 56.0958 70.6294C58.759 70.5082 60.5775 70.0862 62.1676 69.4682C63.8124 68.8282 65.2066 67.9738 66.5989 66.5846C67.9911 65.1954 68.8438 63.7998 69.4842 62.156C70.1026 60.5668 70.5268 58.7492 70.6461 56.0878C70.7674 53.4202 70.7956 52.57 70.7956 45.7808C70.7956 38.9916 70.7674 38.1394 70.6461 35.4738C70.5248 32.8122 70.1026 30.9938 69.4842 29.4056C68.8438 27.7618 67.9889 26.3684 66.5989 24.977C65.2088 23.5856 63.8124 22.7316 62.1696 22.0934C60.5775 21.4754 58.7588 21.0514 56.0978 20.9322C53.4306 20.811 52.5779 20.7808 45.7846 20.7808C38.9913 20.7808 38.138 20.809 35.4694 20.9322Z" fill="url(#paint1_radial_10_28)"/>
<defs>
<radialGradient id="paint0_radial_10_28" cx="0" cy="0" r="1" gradientUnits="userSpaceOnUse" gradientTransform="translate(27.4144 71.017) scale(65.31 65.2708)">
<stop offset="0.09" stop-color="#FA8F21"/>
<stop offset="0.78" stop-color="#D82D7E"/>
</radialGradient>
<radialGradient id="paint1_radial_10_28" cx="0" cy="0" r="1" gradientUnits="userSpaceOnUse" gradientTransform="translate(51.1086 73.257) scale(51.4733 51.4424)">
<stop offset="0.64" stop-color="#8C3AAA" stop-opacity="0"/>
<stop offset="1" stop-color="#8C3AAA"/>
</radialGradient>
</defs>
</svg>
